<svg id="Layer_1" data-name="Layer 1" xmlns="http://www.w3.org/2000/svg" xmlns:xlink="http://www.w3.org/1999/xlink" viewBox="0 0 97 63"><defs><style>.cls-1{fill:#fff;}.cls-2{fill:url(#linear-gradient);}</style><linearGradient id="linear-gradient" x1="-44.47" y1="60" x2="-44.47" y2="1.44" gradientTransform="matrix(-0.95, 0, 0, 1, 5.82, 0)" gradientUnits="userSpaceOnUse"><stop offset="0" stop-color="#0cb7f2" stop-opacity="0.5"/><stop offset="1" stop-color="#dbafc1" stop-opacity="0.6"/></linearGradient></defs><path class="cls-1" d="M20.46,60C10.1,60,1.72,51,1.72,39.91c0-10.41,7.35-18.94,16.8-20C19.81,9.45,28.15,1.44,38.24,1.44c7.35,0,15.48,4,16.48,11,1.29-.28-1.32.37,0,0,7-2,25,3,24,19,8-1,15,5,15,12C93.72,54.54,85.33,60,75,60Z"/><path class="cls-2" d="M20.73,60C10.38,60,2,51,2,39.91,2,29.5,9.35,21,18.8,19.91,20.09,9.45,28.42,1.44,38.52,1.44c7.35,0,15.48,4,16.48,11,1.29-.28-1.32.37,0,0,7-2,25,3,24,19,8-1,15,5,15,12C94,54.54,85.61,60,75.25,60Z"/></svg>